<?xml version="1.0" encoding="utf-8"?>
<!-- Generator: Adobe Illustrator 18.0.0, SVG Export Plug-In . SVG Version: 6.00 Build 0)  -->
<!DOCTYPE svg PUBLIC "-//W3C//DTD SVG 1.1//EN" "http://www.w3.org/Graphics/SVG/1.1/DTD/svg11.dtd">
<svg version="1.1" id="Layer_1" xmlns="http://www.w3.org/2000/svg" xmlns:xlink="http://www.w3.org/1999/xlink" x="0px" y="0px"
	 viewBox="0 0 512 512" enable-background="new 0 0 512 512" xml:space="preserve">
<g>
	<g>
		<polygon points="349.8,143.5 349.8,181 379.5,181 336.5,224 363,250.5 406,207.6 406,237.3 443.5,237.3 443.5,143.5 		"/>
	</g>
	<g>
		<polygon points="237.3,140.3 237.3,199.8 274.8,199.8 274.8,140.3 295.8,161.3 322.3,134.8 256,68.5 189.7,134.8 216.2,161.3 		
			"/>
	</g>
	<g>
		<polygon points="175.5,224 132.5,181 162.3,181 162.3,143.5 68.5,143.5 68.5,237.3 106,237.3 106,207.6 149,250.5 		"/>
	</g>
	<g>
		<path d="M256,256c-51.7,0-93.7,42.1-93.7,93.8c0,51.7,42.1,93.8,93.7,93.8c51.7,0,93.8-42.1,93.8-93.8
			C349.7,298.1,307.7,256,256,256z"/>
	</g>
</g>
</svg>
