<?xml version="1.0" encoding="utf-8"?>
<!-- Generator: Adobe Illustrator 18.0.0, SVG Export Plug-In . SVG Version: 6.00 Build 0)  -->
<!DOCTYPE svg PUBLIC "-//W3C//DTD SVG 1.1//EN" "http://www.w3.org/Graphics/SVG/1.1/DTD/svg11.dtd">
<svg version="1.1" id="Layer_1" xmlns="http://www.w3.org/2000/svg" xmlns:xlink="http://www.w3.org/1999/xlink" x="0px" y="0px"
	 viewBox="0 0 512 512" enable-background="new 0 0 512 512" xml:space="preserve">
<g>
	<polygon points="340.4,68.5 77.9,68.5 77.9,387.3 115.4,387.3 115.4,106 340.4,106 	"/>
	<path d="M284.1,237.3c-20.7,0-37.5,16.8-37.5,37.5s16.8,37.5,37.5,37.5c20.7,0,37.5-16.8,37.5-37.5S304.8,237.3,284.1,237.3z"/>
	<path d="M152.9,143.5v300h281.3v-300H152.9z M369.1,386.2L322,339.1c-11.2,6.6-24,10.6-37.9,10.6c-41.4,0-75-33.6-75-75
		s33.6-75,75-75c41.4,0,75,33.6,75,75c0,13.9-4,26.7-10.6,37.9l47.1,47.1L369.1,386.2z"/>
</g>
</svg>
